<svg width="10" height="17" viewBox="0 0 10 17" fill="none" xmlns="http://www.w3.org/2000/svg">
<path fill-rule="evenodd" clip-rule="evenodd" d="M0.36177 15.6568C0.141241 15.4276 0.0207367 15.1202 0.0267372 14.8022C0.0327377 14.4842 0.164751 14.1816 0.393769 13.9608L6.69457 8.02482L0.393769 2.08882C0.274817 1.98092 0.178736 1.85024 0.111215 1.70453C0.0436926 1.55881 0.00610542 1.40103 0.000682831 1.24052C-0.00474072 1.08002 0.02211 0.920055 0.0796423 0.770116C0.137175 0.620177 0.224217 0.483312 0.335614 0.36763C0.447012 0.251949 0.580496 0.159804 0.728158 0.096657C0.875819 0.03351 1.03465 0.000644772 1.19525 9.39261e-06C1.35585 -0.000625987 1.51494 0.0309808 1.66309 0.0929576C1.81125 0.154934 1.94546 0.24602 2.05777 0.360816L9.25777 7.16082C9.37391 7.27276 9.46629 7.40696 9.52938 7.55541C9.59248 7.70386 9.625 7.86351 9.625 8.02482C9.625 8.18612 9.59248 8.34577 9.52938 8.49422C9.46629 8.64267 9.37391 8.77688 9.25777 8.88882L2.05777 15.6888C1.82856 15.9093 1.52116 16.0299 1.20315 16.0239C0.885128 16.0179 0.582501 15.8858 0.36177 15.6568Z" fill="white"/>
</svg>
